<mxfile host="app.diagrams.net" modified="2023-06-20T19:14:16.229Z" agent="Mozilla/5.0 (Macintosh; Intel Mac OS X 10_15_7) AppleWebKit/537.36 (KHTML, like Gecko) Chrome/113.0.0.0 Safari/537.36" etag="eZqG6NVM199n7sNwg_ov" version="21.5.0" type="device">
  <diagram name="Page-1" id="O_9Sal8Lt6d6B4WVXQyK">
    <mxGraphModel dx="1877" dy="514" grid="1" gridSize="10" guides="1" tooltips="1" connect="1" arrows="1" fold="1" page="1" pageScale="1" pageWidth="827" pageHeight="1169" math="0" shadow="0">
      <root>
        <mxCell id="0" />
        <mxCell id="1" parent="0" />
        <mxCell id="kTY-pWXurD23En8IAXRK-3" style="edgeStyle=orthogonalEdgeStyle;rounded=0;orthogonalLoop=1;jettySize=auto;html=1;exitX=0.5;exitY=0;exitDx=0;exitDy=0;entryX=0.5;entryY=0;entryDx=0;entryDy=0;" edge="1" parent="1" source="kTY-pWXurD23En8IAXRK-1" target="kTY-pWXurD23En8IAXRK-2">
          <mxGeometry relative="1" as="geometry" />
        </mxCell>
        <mxCell id="kTY-pWXurD23En8IAXRK-1" value="CLIENT&lt;br&gt;&lt;br&gt;(https://softuni.bg/&lt;br&gt;GetUserUpcomingActivities)" style="rounded=1;whiteSpace=wrap;html=1;" vertex="1" parent="1">
          <mxGeometry x="40" y="200" width="160" height="100" as="geometry" />
        </mxCell>
        <mxCell id="kTY-pWXurD23En8IAXRK-8" style="edgeStyle=orthogonalEdgeStyle;rounded=0;orthogonalLoop=1;jettySize=auto;html=1;entryX=0.5;entryY=1;entryDx=0;entryDy=0;" edge="1" parent="1" source="kTY-pWXurD23En8IAXRK-2" target="kTY-pWXurD23En8IAXRK-1">
          <mxGeometry relative="1" as="geometry" />
        </mxCell>
        <mxCell id="kTY-pWXurD23En8IAXRK-2" value="Server" style="rounded=1;whiteSpace=wrap;html=1;" vertex="1" parent="1">
          <mxGeometry x="420" y="220" width="410" height="310" as="geometry" />
        </mxCell>
        <mxCell id="kTY-pWXurD23En8IAXRK-5" value="Request" style="text;html=1;strokeColor=none;fillColor=none;align=center;verticalAlign=middle;whiteSpace=wrap;rounded=0;" vertex="1" parent="1">
          <mxGeometry x="300" y="140" width="60" height="30" as="geometry" />
        </mxCell>
        <mxCell id="kTY-pWXurD23En8IAXRK-6" value="Response" style="text;html=1;strokeColor=none;fillColor=none;align=center;verticalAlign=middle;whiteSpace=wrap;rounded=0;" vertex="1" parent="1">
          <mxGeometry x="240" y="290" width="60" height="30" as="geometry" />
        </mxCell>
        <mxCell id="kTY-pWXurD23En8IAXRK-9" value="Controller&lt;br&gt;/GetUserUpcomingActivities" style="rounded=0;whiteSpace=wrap;html=1;" vertex="1" parent="1">
          <mxGeometry x="450" y="400" width="220" height="110" as="geometry" />
        </mxCell>
        <mxCell id="kTY-pWXurD23En8IAXRK-10" value="C.R.U.D. - Create Read Update Delete&lt;br&gt;&lt;br&gt;&lt;br&gt;Create - POST&lt;br&gt;READ - GET&lt;br&gt;UPDATE - PUT&amp;nbsp;&lt;br&gt;DELETE - DELETE&lt;br&gt;&lt;br&gt;&lt;br style=&quot;border-color: var(--border-color);&quot;&gt;PUT -&amp;gt; // new record&lt;br&gt;User 1 (Ivan) = User 1(Pesho)&lt;br&gt;age =&amp;gt; newly populated&lt;br&gt;name =&amp;gt; newly populated&lt;br&gt;&amp;nbsp;(id:112) =&amp;gt; (id:112)&lt;br&gt;&lt;br style=&quot;border-color: var(--border-color);&quot;&gt;PATCH -&amp;gt; // the same record&lt;br&gt;User 1 (Ivan) = User 1(Pesho)&lt;br&gt;age =&amp;gt; the old&lt;br style=&quot;border-color: var(--border-color);&quot;&gt;name =&amp;gt; the old&lt;br&gt;&amp;nbsp;(id:112) =&amp;gt; (id: 112)" style="text;html=1;strokeColor=none;fillColor=none;align=center;verticalAlign=middle;whiteSpace=wrap;rounded=0;" vertex="1" parent="1">
          <mxGeometry x="-70" y="560" width="530" height="320" as="geometry" />
        </mxCell>
        <mxCell id="kTY-pWXurD23En8IAXRK-11" value="COMPILE VS TRANSPILE" style="text;html=1;strokeColor=none;fillColor=none;align=center;verticalAlign=middle;whiteSpace=wrap;rounded=0;" vertex="1" parent="1">
          <mxGeometry x="440" y="560" width="530" height="80" as="geometry" />
        </mxCell>
        <mxCell id="kTY-pWXurD23En8IAXRK-12" value="" style="shape=image;verticalLabelPosition=bottom;labelBackgroundColor=default;verticalAlign=top;aspect=fixed;imageAspect=0;image=data:image/png,iVBORw0KGgoAAAANSUhEUgAAAecAAADCCAYAAABzGwplAAABU2lDQ1BJQ0MgUHJvZmlsZQAAGJVtkc1KQlEUhT/LEkIqQgjKgUEIgUVZUFNzIEGE2A/VqOvVNFK7Xa9Fb9ADRDToGaJZs/5w7KRo0jRw0ijEScltH63U6hw2+2OxOHuxD3SgGUbGCWRzlhmLzPvWNzZ9rjLdeBiQi6bnjVA0uigWvnv7qT7hUP1hXL31fJLz3r1clA4K/sHi1fDIX3/b6Ukk87r0Dym/bpgWOEaFo4eWoVgKjymhhI8Vpxp8rjje4Mu6ZyUWFi4K9+tpLSH8KByIt+ipFs5mCvpXBpXencytLqs8Ul7WiBBkljnZy/++mbovzB4GR5jskCKNhY+QKAYZksIL5NCZICAcZFJqWu33996aWnwfpsoyqtLUdmXedQB6C01tTH6m7xXui4Zmaj/bdFSd+e3pYIPdQ9B1a9tvNri2oFay7fcz266dQmcFbpY+AZlxYb13XuZmAAAAVmVYSWZNTQAqAAAACAABh2kABAAAAAEAAAAaAAAAAAADkoYABwAAABIAAABEoAIABAAAAAEAAAHnoAMABAAAAAEAAADCAAAAAEFTQ0lJAAAAU2NyZWVuc2hvdGVdZBEAAAHWaVRYdFhNTDpjb20uYWRvYmUueG1wAAAAAAA8eDp4bXBtZXRhIHhtbG5zOng9ImFkb2JlOm5zOm1ldGEvIiB4OnhtcHRrPSJYTVAgQ29yZSA2LjAuMCI+CiAgIDxyZGY6UkRGIHhtbG5zOnJkZj0iaHR0cDovL3d3dy53My5vcmcvMTk5OS8wMi8yMi1yZGYtc3ludGF4LW5zIyI+CiAgICAgIDxyZGY6RGVzY3JpcHRpb24gcmRmOmFib3V0PSIiCiAgICAgICAgICAgIHhtbG5zOmV4aWY9Imh0dHA6Ly9ucy5hZG9iZS5jb20vZXhpZi8xLjAvIj4KICAgICAgICAgPGV4aWY6UGl4ZWxZRGltZW5zaW9uPjE5NDwvZXhpZjpQaXhlbFlEaW1lbnNpb24+CiAgICAgICAgIDxleGlmOlBpeGVsWERpbWVuc2lvbj40ODc8L2V4aWY6UGl4ZWxYRGltZW5zaW9uPgogICAgICAgICA8ZXhpZjpVc2VyQ29tbWVudD5TY3JlZW5zaG90PC9leGlmOlVzZXJDb21tZW50PgogICAgICA8L3JkZjpEZXNjcmlwdGlvbj4KICAgPC9yZGY6UkRGPgo8L3g6eG1wbWV0YT4KnUnVEgAAQABJREFUeAHtnQeAZEXRx/sS4cg5yx0oIElRwCwHgn4CKkEBFTwV1E+ygoCAcAbArAQF8wGigEpW0E8kKjnneOR8SDiO49L76lezNfv2MbM7uzuzk/599/al7urqf1VXdXwzKrOQFISAEBACQkAICIGWQWB0y3AiRoSAEBACQkAICAFHQM5ZiiAEhIAQEAJCoMUQkHNuMYGIHSEgBISAEBACcs7SASEgBISAEBACLYaAnHOLCUTsCAEhIASEgBCQc5YOCAEhIASEgBBoMQTknFtMIGJHCAgBISAEhICcs3RACAgBISAEhECLISDn3GICETtCQAgIASEgBOScpQNCQAgIASEgBFoMATnnFhOI2BECQkAICAEhIOcsHRACQkAICAEh0GIIyDm3mEDEjhAQAkJACAgBOWfpgBAQAkJACAiBFkNAzrnFBCJ2hIAQEAJCQAjIOUsHhIAQEAJCQAi0GAJyzi0mELEjBISAEBACQkDOWTogBISAEBACQqDFEJBzbjGBiB0hIASEgBAQAnLO0gEhIASEgBAQAi2GgJxziwlE7AgBISAEhIAQkHOWDggBISAEhIAQaDEE5JxbTCBiRwgIASEgBISAnLN0QAgIASEgBIRAiyEg59xiAhE7QkAICAEhIATknKUDQkAICAEhIARaDAE55xYTiNgRAkJACAgBITBWEAiBTkUgy7LEQYhzp5a1U8o1atQoLwrnuO6UsqkcQmAwCIwyo1WyXoNJpbhCoF0QMO02F90u3IrPAgJy0AVAdNs1CKjn3DWi7r6C0u7MH92HQPuVOJyxes7tJztxXF8E5Jzri6eotRACOOZ58+b5oQGiFhJMFVbGjh2bRo8anUaP0VKYKhDpcRchIOfcRcLutqK++uqraYcddkhPPfWUO+huK3+7lZfe8rhx49IKK6yQzjrrrLTgggum0aPlqNtNjuK3PgjIOdcHR1FpQQRmzpyZ7rjjjvS1r30trbrqqt4ra0E2xVIPArPnzE733HNPOvnkk9OrM19NCy20kLARAl2LgJxz14q+8ws+d+7c9Nprr6X3v//9af31109jRo/p/EK3cQlHjR6VrrzyynTSSSelufPm+nqBmINu42KJdSEwJATknIcEmxK1MgIxv7zAAgv0GRaN563MezfzNvu12b59asyYMX3k1s2YqOzdi4AmdLpX9h1fcq34bS8RM8dMoBE1f/58Oej2Ep+4rTMCcs51BlTkmo+AhkKbL4OhcIDcWF1PkAyHgqDSdBICcs6dJE2VRQgIASEgBDoCATnnjhCjCiEEhIAQEAKdhICccydJU2URAkJACAiBjkBAzrkOYhzMKuCIG+c6ZC8SQkAICAEhkEOgE+yrtlLlBDqYS/bQsuVjsAtXIj7KEwtg+ApSPB8MD4orBIaCwPxsfp9ko+yTmf5bUPYnr4fZfP1gSB+gdNNwBCo51bxODsQACwrR27Hjxtb8S3RBv1LekV/EifuROKvnPESU77vvvvSjH/3IP3Ixffr0mqgg/Dlz5nhc+0E8P+vzhDVBp0jDRcDUjV/neurpp9IxxxyTTjnllDR79mxvYPKG71ljgC6//PJ0wgknpHlzzcjZPwUhMFII9Occizyw1S5W9vMOu/qHP/whnXnmmYmP2UCrFnqXXXZZmjp1aqKz5Y69xnRFfhpxL+c8CFT52hSfgtxwww3TO9/5zjRlyhQ3cIssskhNVDB+9LY9lHyz7+esKbEiCYHhIGB+Ft078cQT0/e///30la98JZ1++ulukDBMn/nMZ9Iqq6ySPvjBD7rjnjd/njUfe5R0OPkqrRCoggDOE92LIxxqLU4VR0q6e++9N22zzTZpxRVXTF/84hfTFZdf4Y1MaFTr7T7xxBPpU5/6VFpttdXStttum/70pz953Igf5ypsj9hjOedBQM1HEpZeeum06aabJn5Bh4/0cwzmG8C0+AhxxgByHYpai2IOgmVFFQJlBNCtl19+2XUNAzRr1iwb+Sl9lWvixInpTW96k+syPWr0WkEINBIBdBDbx+ghx2BtH/H5CuB6662XVlppJXewr81+zXvROO9qjcuFF144TZgwIW288cZeB7gnDMYpk3fxqDdWXTvnDLAIkO8tMwxSLYQA4v1BBx3kQvnPf/6Tnn32WXfS0MFZDxSgFQpAL4Z7hhM5E2qhMVAeet9+CPgw3AjM76Jnhx12WFpzzTXTEksskXbccUczbqUGJqNA9CA+/elPu6HDWHoDUiPb7adQI8Qx+hS2K+xanGth4fDDD/dfH7vlllvKI4pBL58+/yzoc8aGMtrDNA2NzgcffDAtv/zy7rDL8QqjP9Baaqml0re+9a100003p4suusgbomGP8/nmr4OHoMu7eMZ1/jn39QgDe5R65NJkGgEiAHKNM43A8F2yzmy03uI5hil6tPEszm604mYQZ/JmKAY+mCOhJ859KEbwCS8KbY4A7b3+HFuuPRhyb2SJff7Y+MEwffnLX/aswqDEOfIP/fP6QiH6K4cX0xqdBSMYtHRufQTQv6IO9Mf1008/7U7wlVdeSd7rRD/MZLm+1EgLG3zxxRd7B4fr0Ln+8uVd2F7yiiOfBn4GKk+UdXRPp2ww9Y+4+cP1PleXg3aep6Fet7VzDkFR+BkzZnjradlll3VBMyzHsB0hhuhCCAzbPf/882n8+PFpscUWKy8EIB7gQpczjpPeLOcXX3zRaTGsjTIFLX/Y8yfPD0Kb+epM42mGKfBCng9pUOgll1yyPIyDYyavego1z5Oua0eAHiwy5HegaTxxjTMrO6eeSogckS8NO4zKCy+8UI4bOsOITOgIjpH4rJLmPUNxBPToueee83v0EF3jGTpB/vzkJfHROWiNGUN1LTlLaMEfusy0CtfoEHqNHtMzjhDvzHxaHiW+oI0hI32JduVf7HK9zJfb8mDEiOc0LikL/MJ7ubzGKwHa+dGg//73v14PwGzcWA2bh3wqndEpbMXiiy+eFl100T72Yb6Nssw33QP3CIF92BFkHnrEmefxDrv40ksvuf1jvUzoXLyHJs/CYSI3ZAkv2Ex6p+glacmHwD3x8/L2F/Yn9C/owyv6R0+3kjMlHio0z36ZjLTwShryhz7vg1bkEWd0krjwQzrO4RMiTq1nMCB/1hpBi3IH5uTBYVUqjcr4UyvV2uO1dRcNZUBxvvSlL/nkPnMPyy23XPrc5z6XHn/8cTccAAjAHAjqpz/9aVpjjTXSm9/85vSGN7whTZo0Kd14442OWEkpbBm+KUAcDLkQZ8KECemNb3xjes973pNoORbnmYM+RhXjvt/++/lvCK+xxkQX6nbbbZceeughN7RUOoQMP5Fn7SJTzHoj4L1Kq1zI4+c//3laZ511XNYTJ070hX+33HqLN7Qwahgp4s2ZOyedd955/lOUxAv9QJdCpjh7HDjp7rv/vrTDDjv4whV0hVWiLCpcffXVPe0uu+zi8dCdoMs8GotW9txzT6c5u2c+jXk1ePjnP/+ZNthgg/THP/7Rf7d63XXX9Xnjtdde2/X0ySef9HhRB2bOfCU99thjXl/IF0eOnkejdCBcMVDwwrA4GEGD4UF4xpBhxKJh87e//S2BywUXXOB1j+kgfraT8rCIR+H1CIAhuoKtACds1AorrJD22GOP9Mwzz3iDDYy//vVDfPrh4x//eOL46Ec/6noJxU9+8pN+7L777r5QCtliJ9EBOjCf/exnvYGEvtLwRJ44SvSaAx440OHrrrsufehDH3L9RM8YQv7qV7+a7r//fn+Pjf3e976Xdt5l5/Tud787/fa3v3X5o5sPPPBA+s53vuNTJ295y1u8XmH3OH7wgx94mdAnDuw1fMMbv0xGw+TJJ59I6NBaa63l+WOz0euptrK6v59+pax33XVX2mijjbwOw/MWW2zhz9yZvh72qk8YKv/CF77g0zzULRoHBx54oDeoqcPQ86PceremMw67XsGItV0wh5yZkmY333xzZkqW2UKW7LTfn5bdcccd2RVXXJGZQLK3vvWtmRmfbM6cuZkBmU2bNi2zVdaZ9UIyU6Ls7rvvzsyQZlYRMuvJZqYwFneOY0F8jt/85jfZMsss4/TMuGT/93//l33+8593GtYayzhIw2FbTzJT8syMX2aCzMzxZ2Y8nUcztpkZsswMWmaKnVklycyIZVYRPR9T5j7nthNICzKM/GyLW2bGzeVshieba7pQ6bBKmJnxy97xjne4bG2bUXbrrbdm1jDL3va2tzkN5GpGIzPj4sdOO+2UWUMwO/LII13G11xzTTZlypTMehOZGQOXLTpqIy7Ze9/73sx6spn1EjKr4Nl+++2XrbzyytnGG2+S2epo1z9r7GVW8bMPfOADrnP/8z//k73rXe9yeuin7RJwnUFv0EMzVv7Oetyu12bEXIfPOecc12nr4bgOWoMwQ79shWpmq1rLeVmPNzMjnIELWHFtq7czazRm5M0z0lEGru13ll1/0ePzzz/fsTn33HO9Dpjhzqw37fFsDi+DF+vtZdaLycDSHIBjSBnhywy615miLFCjSy+91Osb8ui2cPttt7s9s0ab44D+nXbaaa5n5vzcviB/7ImtNnZdQqewXdgUZGgr8V3u0ABnnkVAZ7BB//jHP7Lbbr0t+/Of/+w0sJ+PPvqoyy/innHGGZmtgM7IF5neeeedGc/QX+oJemGdlMwaZ67L6NNPfvKTMg30wZxzZo0M1wWbF/Y6gc2bPHlyttVWW7l+WG8023777bNdd90122233dxmU2eoX+gKNO655x7HA16oR9h4ypU//vd//zejLmy99daO1w9/+MMM/SQv9JCyXHvttc4f+ozeW+PD3+28885ebJ5zwOP111/vvFvDwusbdvsvf/lLZg3mzH4fvly/oYP9R5cjfWA43DOevu0CQsHo4GwRoLWUHKxwcptvvrkbwkMOOcQBIz4CsF5C9utf/9qNDqCiYNZyy97+9rd7fIQODY6nnnrKhYPynH322S5M4iMIGgUIO++coWdDlK7MKAkVIBw36VBsDNZkUxacAQrAcwL8hWA5KwwfAXCs1TkjB2u5uy7hoDCANLSQky2gcrlZq92dM3L77ne/63FtxMaNInJH/hw8wwkdf9zxTmf+vPmZ7b10I4PjxohZbyS7/fbby8bl29/+thsJdNl60G6MyAc+cPiksZWlrjPkge6fdNJJmY3i+DuMRRgqyo2hpjwYbowcPPAePmgAkI817h1k6BFIV3TOvIMH6oj1RDLqAnmDV+jsL3/5S6e3zz77eLwnnngys9EHN7YYRYzlRz7yEW/QnHrqqd4wDmMm5+zQ+x/sjY1IOMY23Fu2Q8jym9/8pssS5wf2yIWGYjTe6Dg4pma36FDghJETMkKHrYfrtsx6yt6BIT10OLCH2Cv7ZoPfh7xxqugcHSFovzbrtcxGPJw/9PhXv/qVP0dPkS+yRieLAYdLfUBPwrbBF50j7KHtfOnzHN7+/e9/Z9bj93SUIwKNENKgU9DKH2BAPjSEqY/wBS0OdJN3NHzJm4Pn1ZwzDVkb9fE0lDnocKbuUx+/8Y1vlGUR+hz8BL/DPbelc6bQKJUNYWS2uMUV2YExIwRQ9IxtiNtbkcSlxUSLD+W0oT43FAAdCo3S02OwYUeiu2E+6qij/NnHPvYxVwLiIlQMCkptQ9yvc84XXnih80TPCQcfgQqCo8BYothcR/7ECaHGOdLpPHQEwLIm52xysiFmNy70+Gi145g5kDMNNlrPOECcFEYUGVLZ6eWRD3qBfiBTepg4P3ojyB0aPEcfMGDoYd5wkp44pMGoRg+U/Ankh97wjmfkw0E6HO2iiyzqDj2MDu/sC0mZDSv6KAAjOOQND8S54YYbXEdrcc5Oy3j4xS9+4WW2IVSnBb/QDN4pEw0FngV/9PgwpIxc3HrLrf6cdBj/MiaFkQzK2409Z3Cjh4gO2F5dxxUcwYmDzgA6gMMEv2i44YQYJWRkhVHDhx9+2B08oyfoSsjj5JNPdn21lfj+LPQROjfddJM7G0b7yAuZ2vCy50fPm7gEzrzHCRIXW4d+550zja8I0CHQ2ETv0aF4hh5Wc86UmxFNG9LP9tpzL+9Jkwd500mi7qHT0Mof+++/v/Ns+/f7lBG+sfl0ptBFMCF/nldzzvS60V2bGvB8SRPH1Vdf7VjaFI1jDB14bkTPuS0XhJnMfQm8CSfZMLPP3/Is2bwhcyXMX5hT9YUU1vL0VYGmSMl6yD7PwrwEgTRc29Clz4sxPzbr1Vm+0MVahj4XZ60tn+uJeURPaH/IOx94b8ONntaG1H2xgwnOo5igk1UQz490VsFet8gjT6uTrplb5WtqNmzl85v5BRVgxtHsYA7LdYj5NTOQPucW8t1kk02SOWjn3VrMPg9nldvXMzCXhg657pnyURTmWZnnYz7ODKbPfTGvmw/onFVo1xXOpfTJ5+OgPW/efKdBGptW8aQxd0haeCMec4bMP/MscIQW8+HwwUIY64Ulc/C+7oF4lA9aZuzyLFW8Dj6Z50Nn+fgO9MjDjJU/O+WUU50fFkzCV5SVvM2o+nzoeuuv5+UlX0KUoVM+D8pHLfg6FWsKrBFVlmfIpCK4uYfEs2FUf4K+WaPS8eXBs888618iBFvsSWBHGnPYyXpw/mGkD3/4wy7X/fbdL3HNe+TE+e9//7ufmRdGL3kGLXTvzDPOdJrYSZ6jFzbK5/plDdJe22q88P7II4+0Oe+v+2IweAk9gNeQL9fwS11HB+CD+1oCeTDXbo00X9RInUN/l11mWa970IBmMcA3B3lyQCfKz7w9c/g2WpVs+N7XGhXT5+9ZRU6YZGuNpk2b5nSXsfwJfFkP2qzngH4jQ1+r0cic6kgbUFiUhaGJ1dMoCvPyo+07wRgIDBcgIlwUkjQ2fOPvQlF4T7CWv5+J8/AjD9vCh1Xd8HCPUH3lbc8qWY9Y4Q95okQoCHvnrr/+BlPI3i1bJKHiwaf1ujDlToU8Gh0o70jkU6kcLGSxVm1iTyML6mzKIe29996+0MUav5akVP6QRSUajXwGNlRYzhg7zq5LcNYjG3SIZ9wjYyo/C1vQv3AwJWmO8meUBaNl89blhh/OFB2BBtfECfpcky/5wMNcc65h6MgXnSIN18EHaTgwsPkAb9DFgFEHyJNGAgYKGrznXEsIvnC88MMCHQ4CfFBGdJnGKAuG8vyQD+VZ3RaN8Rw+IpTkHnf1OVNmMGxGAAcb7vT9tjhnm5N1HecaHMAKDCqFkAUNWK5pxLPAD5lTpmjgs8CJ1cJBi7jIhIVfl1xySbKerNuq3ffYvWzjSE++6CF8sNjRetVu26DLO+IgP2gTcDrIDf1hQSLvCcQlbw7eV8I64noC+8M95SAU3/nDCn+CJ3SXRgp7mGngw8uqq65aVXfhC13ks7PBG3liZ2lYskMmsLCed4Wcex+xUBIaxx13nJc36m3EyMsinjXi3FtjGkG9gTRRTBSUA9A95PTfhhnSOPvAAsqBMhEQIMGF1qOYCIH7RcbblgJzpsTlwwzQpdJhfG0ApZTOHEkojz/I/cFI8o70rD60eY6yMc5F8xWTNszjNEfNLyl8mf98xDpcw5MNJ3nlhS/KSSUdyUBlB0ta5qx8tyG6ZNMIabPNNvOVnJMnTy7LZST5iryovDhEdCMqNdeVZMJ7ysIZQ0AI3Yj4vCc9B5gjA+iDfS0BnHCk6B6yIi9ocV9LIB/ikgZeyD96RdzDZ606QN6RlrwZ/WCkChocYbRsCLWMB/F4Bw/UUZwAdAjwBt7WfrZrIvrjYf2BJiNeNozu5aK85DuSAVwpJwcNIRwtTpaVxjbn6it+Q8eKfMFv6AYy+9nPfpbWXXc9K4vJzxwNK/6hSxxoELgOTLmng4Ku0XC0tS6+Sps4yIF4vINHVhozqoj8eUd+0I6APLFN8EQ6GqDEIYTOQDf0iOeRB/Hj4Dnx8nxyXSmErkQ+3JO/zZ2nKVOm+EprrhndpEdLwyXoEjcf4GvWa7PcGXsHiPeWLbxz8J5RTELwXYkveOE935in4VLMh/SV0vG8nqEtnTNKgAEDRL5qxPeuuQ5QUbJQaK5pcRFs1Z8LnngRAJnl/K/YNhMEx1YslJlrtmndcecdaetttu4VkAm7kmAwCLTuUCxb0JD23XdfV1aMEVt1EDDp8hUMHoJWJQUIHod6RhnpubDFLJzJUGkNNR2GG7zhhQOcwJaWMd+1DVkEDpFPI/AI2vkz+SA3GnEMX8MffCLHkBnxg0+2ERGo7LTsY9jZH9ofpk9Iy3uGgSNdvB/oHHIaavlJR97UEXoA6Nvmkzb3bIMm70Mm+TIWeSMOo0ocXNt8W7JVsU6buOSB3KgvcU88DuQODhj4yJe4LuceOx3PPfEQ/0CPXh86TrmaEWzu10dMaJBQJs7YHfhiaNjmSauyFQ0JenNsP7rowot8q5o7F3PMdA4oV2CHPQF3AnrK9qWLL/5X+t3vfuffi8YW8n108o8AbRoM9KBpLJCOwNnlYdfIjOulllray8A9X0FkyxzXEQJj6ks8Jy8Oyg1vbvOMVvAZaYtn0oNX0AILeGAkgC1b8IqDpBWHPWcEM0aEoM0oKYEGTKUAbWwvdB955BHnkU8vR4DfSoEpGXSXUQYaBZUCvMy1fdiNDL0SbGQuDaCN0tsCAd+3TGseY09AIAid/Zy2ECzZatW05ZZbugFh/xyOOP+BBhSUfXGko8fLUCXDIHvttVc69NBD/Vd6UPhyKOiBK4ApFIHeIEMhtF6Zm0OxbaWs967gCYHbgiFvjeGgIi3nRgQquK1s7FNZG5VXNf5tu4bvx6WCICOGuGm909qPyl0t7Ug9j2+l07PnwKmGcXNjY/Jh2NJW/6d11l4n2TYo/xAH84S27ahs4OCX3guVHhp8q5prnFc13DFGgUPRmHEfxjOwKN7Hc868o6eLQ77U5uz4WAjzdwss2Os8eU9+0J49m15myQRQD9BPnsMz18gMHNh3y/5tGp043fELj3edDv44Y8jf9773lctJPSNAK8rOGWcDn/HMIw3jD2VBfvRwcBzQrRftWtlidIg5Z3BA1vwAg+0OSaxJCMdajSfe43Bs5bU3Do86+qg0+bOTvQfrac00MML24ksv+lQejUPyIdAosJX+njdTZgyn25Y+d2r0MAk4NWwgowv05g844ABvNCDf4AnZP/nEk2mNNdewfBfw+slIhG0d8nLAB3oQ8bGXTHXAM/hTZnQFfYs45hNfF+AbWgTScU189BUeCMRhXhcdoW4Rj4NyLLjQgo5LdLyyUT26ZPhU0ql4Rp1mXQD1NhqS5Bt13DO2PxGf7w9gw/mRGNv26HaL+LyPOJdcdonb+0jbiHNvk6gR1BtIE4VjDhNjgVNlDhqwMQYoD5vH6cUQ2ECOYeUdHyEJo0N8WlQYXhyHrQ4sK0NsPqe3QO8coaBAc22oiXkQHD1KgjLxDmW3ZfxuJLjnoxIYrPiKFMrBEC7505JGMUuKV1LQRkAVikR5Q8lRspE8wBijwfA6HzVgRIH5H3gDu8CvEeWvlSaG3baDOEa01nFCgREGh19sYtEYGC62+GJeFq4pE3qAXlAeGnU06CgTv/pE2cGewPsIYYh4xnuGLwlBh2vyL+lbqXUOTXSMQE8jH3Cc9IoINMiYQ2denzTUE/gIvKkD6B73kR/X0OY5xgsHHs/gg14MDQ2w4IMXDzz4gPMHBpSfhVDMRROXdDgb6HAP3eDbjWrPKFKe/+FekydfHIs6Rb4jeZA/H8jALuAI+DAHOgW+yGCgAK/MHdNpADuu+dAHae2Vj95hT3BaUY8ZFdnCPq6BbGicMByNQ2bkj4WpZ511lttGZG97iv05tvITn/iENyDRO2SEXaKx/Lupv3M5UZYf//jHzgs/H0rHhNEPsCUgZxoe0eiil0yjDJ201drp/vvud7tIHWJh2m233VYuPuWBPgG+CPTo0Y+xJj9GNsmHkSxsJEP81CnKjC2Nj/EQB1qMbHowkpSNePS6kQE00TfiMNrDNb9EFTpJXBoYBOghK+IQqO/wQB5M5fDRHMpHb5nRDRqrYNzwYGC1XTDF8CXubBRny4oJ0pe3s0+Q7TBsVOfjIgTiEkwQvlXKnLDvAWVDuQ2ZZCyJJ50pnS+vN4F4GhOubzpn2b4ZvMx6xZk5V49vPXHfB8cWEvI5+OCDfYsDadjMzwcAeGctQueHrThsd2APnhk+35JDPtUOZ7gOf6rRH8nnptQuK7CxClTadsDWhJ5tNFYpKuIw3OJTRht29u0TbM2wilfOM/KOM1uk0A+2A7HnE32yqRD/kA337IOHd+JBh4/bsN/Rhi39gx1nnH6G72NHvjbd4ntGiWOGNnt15qu+TQY9gS46YUYrs16M07KVr+V9ouSFbplhdR00w+jvzJCV93f+9a9/dQwp39FHH+3b/fgIiE1f+AdNzND6Fj8bmcls9MexB2PkwF5WPv5APui0GerMDLrnxZZEyslzymCNFP/YBXIw4+x7T9nrbYbMt/yw1cVGB7yu2Q9oZDNenuH7S8HHGga+ldFGofyjGnxgAr6pi2Zs/QxPxYO8Lh3CR0hGUp8r5YUeod+BM2WcaXLnDB6k6S+AC7py1VVXuRyRHTaMLUvYM76nwHcaoMWB7plD9i1KbG+zXrHvR+ZjL2y3Qs+gYZ0W3zoHH+zXDVvJO7aCIm/yMSfv+6bRkSiHdUi8DmDHiINNW910DNroLDoB35TZRgl9Sxe6jcw5+NgTH0qxxqrfs7WVrX/UIduN4GdsL/TYr82WVXiaNm1axgd9yBc+KTsYkDdbxLDH6C97lqFPudBd6iu0+KAJ26bY+vhZ2xKGLqPTbOkKfq1D5nUDDK2B4mnRYT62QnnAgC2U8ENZyM8aW445H6WiLkMLvOyLZi4TdIC0A8m6Pz0ovhvFg4a3AOqcgQFQbgEZIL462gyVz7Ex7HOkLfdnrsCE4jlHEWmVsnKbTw7SI2bemh4OLUtTBm990Zr0lpkNRzNfQVp63WxH4B3xd9t1t3ToYYd6K5f5CeaWJluvmECLkNbZ73//+8R2LHoxpljO06RJk7w1RqsteCJuI8NI5VOpDMW86SGOGds7f0aaKH+cK9EZyjPyptXMqAkrWfl0ZMxRVaLHwi70ih4oW0UYUWH7xt777O3TAkszF8ccYE91IS49zGOPPdZXwfKZQHoK9sEI1x/imVH0eWmGHxnFsQrtrXvODLGZ0fN86AXR8+G5GQbvhbHSl2kb9JkeKwG9NEPlUwJmuLyHNmXKFO8l04M64htHpCuuvMLLjI4TF1xJB22G4ekF5QN6z5AoOwyIi46bQfKeixkl3+HAsCMHZUKvzcl7XWGFNqvw2aIIHug1PalzzzvX6wFpoAUd+DXj6ffwQz7FQP6szOWXsWz/rff2inEq3YdM6q1DlfKq9CzKzhkeOEfgHlz6C8E/cegBgjHDytgqpkfovTLUim7Q473UpizyYbVVV0srr7KyD2nHc/Cm981WUNZFgDnpGao+/vgT0sMPP+Tb/Gzfss+LB8/YU3SF+OgvvXUWZNHLRE/oVbOGJ88zeTJayRA7PVxGyuw7ET6ySc+Z0cJY98KI5ALjTPZm9qDB4lB62Yw0WCenj17waVJGhRg+Z24dHJk2gjb6wzYyAmViGpE1IExxMp1wxBFHJGsQ+rTONw7/RmI7H3UsdIS6he5DJ8oCtuBMAAfqLdMB9k0Nr4O8o/ce+k58AjSLh78Y5p+2dM6AGSBzDZBxn8ej0rPie9LiUINGOE6UFQUlRH4hxDyNuCZ+Me1A+UdaneuPALIajHN2DnraSSFHnuVljjxDpnHOc05c9iiPNicOjQjoBu94Ful4hs5RwXnH88gr3sXQH3QiHWfSoZtMx9AQZdgOoxl5kJ4jn85vqvyBVqStEqXq4+DZGz49BjciB89xnz9Huvwz4g/FOedptMI1ZaMscR4KT6RFhjhrOhkMqdI47A/ToeRTKU3kjZ5xnQ/kj77gwPPOKR+nfG1J6eBU4rnSs3K6Gi7gK44aotccJV9HAwfkAL9Rp4P3ONdMfJAR23JBWB4UrvNGLMpfi+BQPoCnRQkdlC4EwbXpVUk5e4w2caBbKeQF52ktErQi0KPgPyHPf+mJ/rYEAj2iZRFfpeA6hVLkA2I1vSD4Hnv0xm5DT3gXuuGRepLzLP884nNGf0KHPI394Tn6ykE63mMg0X1a/zznGWfyLKYPOtXOUYZ4H/zk74txeBfP3AhbwbmPtHEOGtQB4nV6CEziPJTykhYZMupQDEVci+8r3Q+Gl8ib/PM2LOjyHsccNDlX5Im6QWXoCRE/7gdzhj5Hnp887aq0erOvGqX4gnygDb9gQH0bDu9F+rXet6VzrrVwA8UDeA5CKBiCCaM51wzdWBuGzYeBhER6QpwjbRivuNe5hRAYQgXOcx+ytv6q61EYjXgeuoXTZ/sFOhd6FBWfuDzjwADljVA+r0jLe4bVMZJch1MOGnHOp631ejhpKQf85MuTp1fEplaeFK8XAfBsRAiZ5WmHLcw/47rIQ/G+GH+490G/Ej/wXS1Eumrvqz33RqSRJf1QaVSjXevzrnbOgIRgMWzREkQQoaQMT8Z1rYAOJMiB3teaj+LVF4F6yQV94SgG6DPfzlEMeR3jGgNUyQjZYiB7XkqPzjKPHesobHGK63ClUaRifpXu8zzn+akUt79nXs6eBm8xXj6P4jvd144AOAaWeb2NZ5Uo5eNVeh/P8jRqTRNpR+IcPI0Un/l8iuULXorP63XfOzFWL4otQgfgBjoAniMMWlEQkX4oRYq0xfNQaClNAxGwTggyIuRlNdQcw7HGOWj3Ry8fJ39dTMMwtjUn/UtJ/K44i7hYiMYWNe5ZkBM6nT8X6TTynnzpOeeP4KWR+Yp2/RFoNbnl6wbXjTjqj+LQKXZ1z7ksXJtfQBEJlXosQ4dXKdsFgdCFevFru2eMVN/FMGHsyCv0LPSOfOM63uV54R2rTek9s2r0Uluxy0KhYtygkU9byzXDzT6Ul4tciRa89xcCx0pp+0und4NDoJIcKj0bHNXWjx1lbLZ+BR+NRKyrnTMCpoWPgQsjx7MAPs6NFIBodx4C0WukZHnd4j70i3Nch57FmecR4hnOkwA9tiiFvpJXbyBOKW2k6303wJUljTwi5qBpREI7V0qbL1cuqi6FgBCogEBXO2cMSAxpV8Cm7LgrvdMzIVANgaJDjnjoG+8qOa6Iw7nae5xnLGDEB7/O2dnnDKulzdNv9HXwVeQlfx9xGs2L6AuBRiCA/ub1uRF5dLRzLvYEKgEYPY/oieTjVHqWf6/rzkWgFt2pVPpwOqXOb28PuBTXqFoPNeIMqnLTKa7Qu83zMCh6+YR1vq4Fu1ri1JmtjiE3otihdy0YRhSDSuUfAVw62jn3jARWgrb8rPjVqFYxcGUGddEcBIZY+cJolKZmh0ikhhL3p6f9vauB9PCj1FLsWuIMn5POpCDsvKHamcLtLVVnO+fecupKCLQ9Ak13um2PoAogBNoHgY7dStU+IhCnQkAICAEhIAT6IqCec188dCcEWhoB9Z5bWjxiTgjUDQE557pBKUJCoLEI4JhjMVm1nOS8qyGj50KgvRCQc24veYnbLkdAzrfLFUDF7xoE5Jy7RtQqqBBoXQQYEeDnNgcaGWjdEogzIVBfBLQgrL54ipoQEAJDQIARAX5ohk+SKggBIZCSes7Sgo5FAIPPrzdNnTo1rbbaah1bzk4oGF8+46M/d955pxeH+/i0bieUT2UQAoNFQM55sIgpflsggGNeaqml0v7775/uvvvu9NJLL7mxbwvmu5zJww8/XD3oLtcBFd++s2JzPMVvDAoXIdAxCOR/hCIWU8W5YwrZIQXJm6KQkT6h2yHCVTEGjYB6zoOGTAnaDQEMff7IO4F2K0sn8ytH3MnSVdkGi4Cc82ARU/y2QiB6YMG0HHMg0XrnomyKsms9jsWREGgcAnLOjcNWlFsGAXrOLcOMGBECQkAIDIiAtlINCJEitDsCcsztLkHxLwS6DwE55+6TuUosBISAEBACLY6AnHOLC0jsCQEhIASEQPchIOfcfTJXiYWAEBACQqDFEdCCsBYXkNgbHgJa8Ts8/JRaCAiB5iCgnnNzcFeuQkAICAEhIASqIiDnXBUavRACQkAICAEh0BwE5Jybg7tyFQJCQAgIASFQFQE556rQ6IUQEAJCQAgIgeYgIOfcHNyVqxAQAkJACAiBqgjIOVeFRi+EgBAQAkJACDQHATnn5uCuXIWAEBACQkAIVEVAzrkqNHohBISAEBACQqA5CMg5Nwd35SoEhIAQEAJCoCoCcs5VodELISAEhIAQEALNQUDOuTm4K1chIASEgBAQAlURkHOuCo1eCAEhIASEgBBoDgJyzs3BXbkKASEgBISAEKiKgJxzVWj0QggIASEgBIRAcxCQc24O7spVCAgBISAEhEBVBOScq0KjF0JACAgBISAEmoOAnHNzcFeuQkAICAEhIASqIiDnXBUavRACQkAICAEh0BwE5Jybg7tyFQJCQAgIASFQFQE556rQ6IUQEAJCQAgIgeYgIOfcHNyVqxAQAkJACAiBqgjIOVeFRi+EgBAQAkJACDQHATnn5uCuXIWAEBACQkAIVEVAzrkqNHohBISAEBACQqA5CMg5Nwd35SoEhIAQEAJCoCoCcs5VodELISAEhIAQEALNQUDOuTm4K1chIASEgBAQAlURkHOuCo1eCAEhIASEgBBoDgJyzs3BXbkKASEgBISAEKiKgJxzVWj0QggIASEgBIRAcxCQc24O7spVCAgBISAEhEBVBOScq0KjF0JACAgBISAEmoOAnHNzcFeuQkAICAEhIASqIiDnXBUavRACQkAICAEh0BwE5Jybg7tyFQJCQAgIASFQFQE556rQ6IUQEAJCQAgIgeYgIOfcHNyVqxAQAkJACAiBqgjIOVeFRi+EgBAQAkJACDQHATnn5uCuXIWAEBACQkAIVEVAzrkqNHohBISAEBACQqA5CMg5Nwd35SoEhIAQEAJCoCoCcs5VodELISAEhIAQEALNQUDOuTm4K1chIASEgBAQAlURGFv1jV4IASEgBFoIgSzLEkeEUaNG+WWc47nOQqATEJBz7gQpdnEZMNbz58/3I2+4uxiSji86zphj9OjRfu74AquAXYmAnHNXir0zCj179ux0ztnnpJ8e+9M0b9689Nprr3VGwVSKqggsvPDC6YQTTkgbbbRRxV501YR6IQTaDAE55zYTmNjti8Dtd9yelltuubTjjjsmDLdCZyPwk5/8JF1zzTVpww03LPeaNazd2TLv1tLJOXer5Dug3OPGjUvPP/98WmONNdJuu+3WASVSEQZC4LzzzkuvvPKKR4vh7YHS6L0QaEcEtFq7HaUmnh0BjPPYsWN9SHvu3LlCpQsQmDVrVlpwwQV9vrkLiqsidjEC6jl3sfDbvegsBFtggQXcOVMW5p0VugOBGMqOc3eUWqXsJgTknLtJ2h1WVgxzrNSmBz1/3vwOK6GKUwsCctC1oKQ47YaAhrXbTWLiVwgIASEgBDoeATnnjhexCigEhIAQEALthoCcc7tJTPwKASEgBIRAxyMg5zxIEccXqQaZTNGFgBAQAkJACNSMgBaE1QxV8sVHbNlhEdKYMWP8IwjcsyCF7R3Fz0dqocogwFXUpiIwPyt9AjWYQHc5Ro+y9rt9wppPZaLfruO9n7eO6DoLgbogULShEO1WO6qe8yBViu06fDbyRz/6UfrYxz6WXnzxRd9rW0mpBkla0YXAiCNw2+23pZ123il95jOfSc8884xvR0PHaYD+5z//SXvvs3c64IAD0owZM9KcOXPMOY84i8qwgxG4++6706GHHpo+8YlPuP7JjvYKWz3nXiwGvMJgffjDH07XXnutGyq+ULX4Yosnes/st1UQAu2GwB//+Mf0j3/8w/V5woQJ6dvf/rY75tVXX90bnnz0Y/3110/HHH1Mz2iRlVAOut3E3HL88pW3zTbbLN13333+xbell166p/GXdW1PuSgk9ZyLiPRzz1D26aefnm644Ya0yiqr+LecF1xowTRz5kx9AKMf3FrqFb8yaAfDuC/PeDnNem2W348abcO4PUdL8dtgZnDC9FbGjx+f1l57bddjGqHTpk1L3/nOd9ISSyyRFllkkTRmbGkaR465wQLpEvJ8B//qq69OF1xwgeseozV0ctRz7lUA9Zx7sajpatlll01LLbWUGyyGtPklJBSNj2AMRbEqpenWOZaaBDCcSDhmC8yfTp8+Pb3rXe9Kn/zkJ723WHrT89earGW59NNLtBnYcjJz7eXrtrkwlnffffe08cYbOyZrrbWWsx76t84666QXXnjBR4V8/tlww3Hnil3forYhhPUFoHuooU90dt75znd6XeN+scUW82fdg0L/JZVz7h+fPm/7GKjcmzDkvI/r3GtdtgoC5ktxqLTQH3vssfTcc88lhtNiUR/yI8Q5L0uucUz5Z/nfE440dSkqbPT6/bqQrEYEA/nWt741vfrqq2nRRRf1aFEWykfgHNf+YDB/BlGWyHcw5BW3PRHIyzrqFLqo0ItA2zpnhkEQKkaDYeUHHnggvfzyy96LpcXPMB0KgEENReBMOuI+++yziTnj1VZbLS2//PKOSFE5SAv9p556Kj366KPeS37jG9+Y6D0Tgq7f9PzhGcae4/777k8vvfyS58MvJy291NJp3vx55XRDNnj5DHVdOwLmKFh9PGf2HHfMyJdFTugNIX5QAT1ATx5++OG0wgorpMUXX9wXRN11113euke/QpdIxxAwv46FzHH26AgB+YaOoKv0rh997FEfeUE/WVhIHujXkksumdZdd13vpYbekRb+ONODfeSRR1zXGWp+wxveUNZx3nOQP7ystNJK7miffPJJ11sc71ve8hbPwxmzP8SnjHHcdttt6R3veIc/L9aDSJM/08iBBthRNxiJwLlT9sUWXcwbQR6fBhFlt7iUlVEnykq5br75Zi/veuutpx5THtwmXKMH6CsL/5gH5oyeMZrCqCDv8nqBTNHfe+65x3VgoYUWShMnTvQ01dgnPTr8+OOPuz5gE9EHaFUK8EQa9BeeqAPEZ/qF56SDt44NVsC2C1axM1OezIaUs3vvvTdbccUVMzOsmSlIZhU/s/ng7Nxzz83MYGYm4MyMlh833XRTZr8Dm5lhzGwBl6cxw5t9/etfz6BpSpCZsXHa0Denn9lK1cwUwtNwNgOU/eY3v8ne/OY3Z2aIPQ7xIpCfGarMFDUz5c5MeTIbrsnsN4ezP//5z5kZXueJ/OBr3tx5fs/zOIKWzv0jAF7IZ//993fs5s4xOQ9wHHzwwZk5XJcpckEXbFrCZfTNb37TM7z+uuuzt73tbf78zDPPzKwxl5nDc30h7u23357ZQimX3zbbbOPxeB7Hm970Jtc99BM52ze/M3PA2cc//nHX0SlTpmRPPPFEttVWW3n+6K01FLO3v/3t2fPTn8/M6Lkuoo9cn3zyya7jxEPP0d2VV145u+KKK7Knn37a46CDtuLVde6EE07Ifv7zn3uZ4In46O4f/vAHLx+4ER/a6DK6CRa2SMef8R49vvDCC7Ga2aRJk7ysPEdnScf5n//8p6eFL3CEBtjaPKLTIj44gd8HPvABL/vxxx+fmTPPrHHh8W0+O/vVr35Vrhfk298Bhscee2w5Dnko1AeBE0880W0nskRfsF3oso0yuR4j8wiXXXaZ2zhkjk6GnbM1Oa676Ejx+NznPpdhb5E5dpo80DH0Z5lllsnM+ZZtoNtG04UzzjjD80GHrRPleVnnyHWfOHmegrdOOdP6aLuA0DF6559/vjtLjFIYzHCMq666qhvAMHDXX3+9C9eG8DL7sfbMes5uQI8++mhXlve85z2uTBiGCAceeKAbu0033TT7+9//ntkq7eyss87KbBGNK9frnLPZCeuteJqtt946u//++0sNiHvudUOMQb3lllvcMLpzNkci5xxoD/6MYR6sc0b2GJCddtrJ5f6Vr3zFnRYNJxpvOGMaVRgcHNuRRx7pDbHDDjvMZY6TRq4YBVu57/r361//2nXHtiJlkydPdmPzwx/+0B0UckYHcVo07KD5oQ99KFtzzTWzT33qU9mpp56a2QrpsvPlnjQ4dg7bzuRGbO+993bdwtHfeuutbuS++MUvOh8XX3yx84yhxPBNmDAh22GHHbLLL7/c9Q2njPFDXyk7DVD03+b73KlSXtLBJ40bAthWc86U/bTTTvP6RD40kEl7xx13ZBtssIHnQ32knmLEyZc8MMIHHXSQO2rkhoHmeb7RSr7hnMknruMs5zz4etJvCrNZ4EyDEWf55S9/2RtPyNMWvrqM0F10Hr1EDuecc06GfbU1G253aehZjzj77ne/W5YxnRsOGnw43T333NMboNttt53rJbpJXaOzhOMtOmf04KSTTspwxNQTGnS2xsf1mQYDz6nLoSPE77TQls4ZgWAQqNy0wB977PFyTwYF2n677V0RvvSlL7mBw2HbsF5mQyHZlVdc6UYjBIlibb/99t7y+8tf/uLKx7sHH3zQFcCGdVzBUFbvCc2e43nROy86ZxuucYOFEcaAophu8Izff//7326Y6YWE4YXXvHKhYJ2oZIF1vc9gNVjnHD1r0tlQXTZ16lQ3OugBvTxk9tyzz7lzw5ngRHGe5GVz1N6LwEBNmzbNnS3OJRqL0A4547hDzrynp0xvFkNkUyk+shMOh/OPf/xjbxDstttunlfQ3Habbd0R0ziMZ8S3oT0vO8846N3suuuu7mw333xz1yv4QccwjtCnd0PvnGeUFQf9t7/9zdPU7JyNJmUBF+oAmAQPyPfGG290eltuuWWpvlheL730kvd26ZEx4vSFL3zB09DrB0fSgy/l4hxHHp+4lnOuby1CF3CsjJ643ph8vY6YzeKdTbW4LcXxYquQt01duG1EdhGXd3RMbGrE7TIdJ3SM4+yzz/bGHzqL7hA3ZIzeopfY0ug5ky+OmHpCYw+61EvSoSvco6977LGH8wgPoTv1Rae51NpyKxXzDdYb8P1xNlSSVlxxBZ92iDm+Aw48IJkTTDZs6HMTLNlnvtAEmtbfYH2fZyOBCdTnGT/96U/79Q9+8AOnw3O2kVjLz/fiBV3mzdhuw731gDxu/s9FF13ke0PZUM88mhn38jwmc4Sk58MO//3vf/ssLuK5QvMQYC54gXEL+PwV6xAWHr9wstES1x1zpsmGzX1+y1r3voWOxVrWS03WA07WE3S5IkPmYc3Q+L0ZIU+DLvFspRVX8rTEs5Z/suFwfx+lXt22NJG3NQp97pg06Pn056f7/KwNVfvcnpkLT3fN1dd43twTbGon2VC8zwOaE/Q48ENA7z//+c/72grmfc0wel6Uhzli8uJZTcFU1Xo0yQxkev/7319eREadIFiPyvOOfOAP+sx5U3Z036YP/Jn11BwT3kc54kxcDoXGIQDWo0ePcVtnDai08847lzNDH9A/ZM23HZA1umyjIy579r6vvNLKpe2HyMlUzXrYyaYvXF9/8YtfuJ1Ep21kxOeN+dANOlfUNfjIy5p8f/vb3/q6IPK1TlgfHUXXWAfCmoXQlzLjHXTRtrPpNqThyrPLLruUFyugPBzWO0h//etffQEOgrTWvBsjts6waAXlQKgoAWcWMhDYv8zCFusN+YcZMMws9YcGysOZo1KwVp07Xpw2hmm//fZzhSIuediQqZ9tuDRZa9LzgI9q9Crl0erPMLx81OJ973tfmjBhgjuFtjKyZmBYMIaMkCO6hHHA2Vlr3h04Do9FfRgMGoiUD9kTfvaznyUbfXE5c5+XLem4zzui/HscqPUKEkYSfbFet59xZDhyG7r2hTA2jJy+9a1vpeWWWz4tanu14ZFAGgwhgWeBO2cCOo1MMGjoOXUBvtFxeIoyeOR+/lBnrrrqKseJevXVr37V80KXyRfaUUZ4In/ywCjbKJJvXWMBJvGJx3viEXiWf94PGx35ChnYtFlaYvEl0pZbbellBJ+8ntSz4GAN7dBjOhAReM77d7/73c4TMkI/bc2Ay5nOx7gFxpVlR6cFu2bTeR7noYcectqks1FEr1M0ctEfQsg88iuece7gga7Z1JO/Ji14XHnllWn6c9NdpyId9HjXSaFtnTNGDOEtueRSLg+UCeOAQmGkwkCNSWPKK3PDeIVBQKDE54zTxiCyvYZeEYqGMbHhFhc69Dn6UwAbevF0GG56BRHg04b5ks1ru6Fitfe4sabYNDct1FOxoBVH5D9SZ3Cjh8fn+CaYI6BhY3O7yYbLypURDFs+mFjQCw70Al3CMNiAa0kX+N40jtzKcv75F1jv4kRfgfrRj37Uy0vvAmeO8yEtAZmEE0SHijjwjLjE490Y69FY69IxPOWUU9Lhhx/uK8JtcVj605/+5D0Um9f2ldnQD70M2cMv14Q40+ggD3YqoN/cUycijUce4A+6jJ5jjOk9xU6HwIteFo0JGgOUI/LmTH48g9c8v3EfmMAjR8QZgKW2ex2YhO3JF4BOh01/+EjIJptskj74wQ8m9MqGnT1aPTGBD+hxLtnSJXtZKalO+T7isjqf65Aj1wTux9noEw4e3aehHvKMTxyj/27yBvCh0KSDQ6NuwuoTXld2m7dOO+64Y1pt1dXK/HXiRds65xi6e+yxR82BLuXGE2VAAVD6aGUx/IZRQOA421DGEGYoFwpFQCEI0OKY8fKMspGIuPkz+YRR5Rpjx75RhjudBobclDGfLy3QOXPnlPOoV4VjyNxW33pe5BGNES/QCPyhHBh+8LA1Ab79gZ70RBuZwEnbnKhvXatXeYdTJHSkv4CM844L2bogsS4mT9LbIpdki2PS5MmT/Yy8H7IeA71dGnrhAClv6Ei1PKOnjK6SF/pIOnrUNs/qBprhQfC0RYX+ZSUMJY6a6ZMI8O1GMB70nOEXAwyPDIFH4DlpQibRYIz3+TNx0CtocGaE6uCDDnY8ok4Qv0zL6EYgTWAecTlTTviHN+7BvIR1qVERcYNOI8/YB1sgmmzxUyOzKdPGhuUDuDHyAFZ855zRP1uU5x/JoYHLFB7b3fLyzqcf7HXoBPmCOXU3L39rQpVJwhNxotMR9jJkjfy4RicJ8Ah9jqhHXEOH0alsfkk3KsmXuhAdpE023STZwtyyTgVDdM7qhUPQbLVz2zpnW5CSbCVoOu6449LUqVPLwkP4EWyRj8+DsJ8Op2uLdcotcpSCA4Wjt8w1PVp6yhhI9ooy53z/A/f7O6dp+pSNKqXjPpQNw4sCsv8Oo2UrWd0583zOfH4soKSIUQlCoeMc/A73jCGn5QoPzQjkz3AwFQc5gA+Ogkr03ve+1zGtd5mHWk4c52BCL9+jfK8xw24MBzKEf8ghh7h+Ud7qodfQVY/T+wadIU9bJOP4oV9M4eCo2VsKnug/0yUMUUeAB8pGbwWdD2eH8WQ/MvLYYIMNyw5w9muz3TFG+oHOyBI95/vyDMHawrpy3SOtG14z8fDOAT+coyeF4fV4PfrBNbxFgyJ/HWk9wQj8weHwWd48DyOQbTkL6gwyYn0MITCEHzC3xVGuC2FPygl74ubva7lGN2z1f7JFet4oYPiZkQ8CeRcDtpJ1PLZNNbGmIh+ID1+s7+E65paRK7aaRivTIKw9cMdto1CVAmlJwygja3iYhqH8POcIu4Kd4dqxeD2rlUi33bO2dc4M99i2E29d2japtNFGG/UBH6PF8BALGmw1dvra177mQudjC7Z8vyRsaxminLRQUQDbruItNlp/xxxzjP9Siq1mTbaNpkQ7pwQ4XpQV48nQJ0oyadKk9P3vf98XTKDAzL+gQMQj0DKnFWj7OstGC4WrV6BcVGIqXdCtVJHrlV+RDnky7ErlY67Wtvr4wqoY+izGb+Y9skA2HhBBbyevzBY9h69kyPgAAA6OSURBVMAxHoIn5bvkkks8PY04ehM4HRp1hEqY1yrmSIuBQscYwsMoM5/NegjywpgydHzeeee9riFGOhpn8Ej54B8nhyO11dFOawGbK+QZZZ47r/d7xsQtljfKzZk08MevsTFiwMd8+KAEi8DyAT6PPPJI74XSO4QP6hQY0XCABh9tQU9p0DkvEDB+8vmTLvDI02/UNYuMWDiH3MeOa45pxE6xvgAZwwvTYTg3nFEem3pgAL0Zr8xwm8XQOQ1O+w5AH9JM5dAYtD3tbh+Zg6ZXixOOYOIs69lU6yhhSxl2DhtJGuaJ99lnn/Svf/3LG7foZ7WADvMDLNQx4jOawBB/1FfO9PLRQWxMp4bebmYblZAKSwuP1hUV3rZMpV/+8pfuFBlO5dq2pCTbs+fDZuMXHu+r/0jHimyMBwZs9pzZ6cKLLvShQSoAw64oBkaW4SMWPeDM99prL58DQeloXRLv2WdsCMjoYWB4zjX88K1meMIJ87OSGC8OhiThmZW65B2GrmiQhioG8rf/zg80Sve9PRgqYqMPcGDBCD8Dh+PYdttty3OSUS74aoVAIwY8bIuSO4wbb7ox/euSf/lcqtlm1xGG+JhfRZ4zX5npMkNulJPGBz0t+xCINxJtW0maMmWKOy7ekw4HhIEJx8QZ3eI9ozr5QE8XXSKv0A+MG7rKHDb0cHS85ytL1113nffy+C52PtBbpg7QMIUOedEDwTBi4JluIfAcw0sjhXzRe56FAQQb24PvvW+cevBEHPSYVbmMLE2yBil5MUdIr++MM89IW2yxRYrV5+BFWpwy/FMOrskHx8w78vJgp8if+5Ku9LwrxWjoX/KjIc2PfDQjkD8dCeadsTMsoGJeH7kReF/CpH7cUV46NvRo+VIduxTQF+zenXfdmb73ve/5KA32EFlOnDjR7SF6wCgOejzfFkjCF1MupEMnmPJBlqTBFmNf0dsjjjjC6wMyp1eMLeWa9NCEHvfoD3WMOsMqctZdgAkNQn58aDP7RatIhx53ZDBQ2i6YwH3/sLWeMmvF+4cMTIF9D6kZJ/+gA3tTzbj5PjsTuO+55AMi7J2zYW7fE0pa64lkZkw8HvGhzdkMr298t2HL8j5Q4rL5fd999/X9d+yztuGbzAxkeR+eGdPsIx/5iD834+NprZXo+wj33Wdf/3oY9E0RfY9g5Em+cQxFIJG2Hc5DKV+lNJR1oH3O4BtH7PtFtnxUwQyGy4evFvGBGD4cwocN7POcvu+SL88hbzMUvi+ZdBzQQ85mIFznrCfhe0GtcZaZcfK9nuaIXC/5UIMN6foXx8iD/ZzQ5JqPb0DHjJDrLHtN0Sc+dGJbSVxHrPfkz8yAuq6js6Q1o+17ivnQgw1Ne1y+voWu8eUx9uejn/CGHrIn2RqtZd2mTthcuX8chXLyoQl4swaG02I/Ms/Zx81z3luvzj+gYw7d64YZZ6dPnuRBHSSfo446yvepIh/w4sM/pKfuQWvChAn+gQnomKN2npAv8fOhJLfej5JwT56N+kJYO9SdajzmcRvMtTX2XKbsX+Yrbtg4dAbd4TBn7B+uIR56hrywXXy8CTu61lprZzbdkvGhJtJi+/yrdRaXNBzEt1XXrpPUNeij5xzWgXG9sAai64Y1Il0PSMN3I/hoCXxg14M36olNZzov1rhzO8rHeYr6MxgcWjHuKJhqt1aHVVLvtdALgX1+xIBhbFryzC+zd9ME6q023kdr3ITnvRniP/XkU+mFF1/w1h+9jYiXj0vLjLyYk4Y+LX72kpqx9hacGR5fXMMQjbe4rRVKemjRW6YHyVzb8rbtZe111i4vxOE9Afp+pqtWhw5C0HWiTfgT5RmprCkvw4DIyD6y4VMU+bxZURwhWtlW6b2Fbkaj3CtGjxjSRI7oCHJ1LBFTDwnihGzjDE37Epb3AJh7XnKJJdP4RcY7P9CHBunQL3qoBJ6RnrTRY424vAsM0SficWYOH12iR4xeo4PMjVJuDgLxmC4BD/uikg+Ds2eaIVJGc8gLPohHPpSTXivpyScCPWjiouuEMk+GBVtnoEE6zvDK8CIYsICJ6Qu+O87K4ph7jnyi3NCMspMP78kzHyJPzsXAwkKwZiQgQmAW98M5R571pDkcfkYibeCNLmCvrr7q6vTc9Of8u9oxz42c0J0IyIxeLt+8ZgEdOoTs+RY38XhHoNcf+o280RV6wOaYvUdOnSNu4A5d0sQ9PDHagv3FDk+0njvfoKe+EifiIa9Ok1lbOmcEUjJKLB4oKQxzxwxDhgIRB2ERrxQ3uREIQ4SyEQYSaF74xI97p2O2gzyh0ctTKR/iEsiH9wPlU4qtv4NBAMxrcc5F7EkXciS/kE8xXpEX0kQcnHzoGtfhaOJ9MW3+vpY4EZ+GAvmgb+gxPHAPDZxklAOjZt9GLjtnHPVg8on8+jvn6ZFvUbd5xgGv+bj90SR+tbi8K4ZGO+dift12D+boGTLJ63foXOCB7IkbceJ5pM3LNH9t5tKnU0iL/rL9anSuER104hxpw15HfqRF58OeQy/iRtp2P/dtsrZJaRACgiH0MVhZyRnzHmGFwMbanuKiAkScgYocAscAQ48egwfshnd4S12r4Akl4ghjynUodvAzUJ56Xz8EkEvIMKgW73ke+hJxKp1JRzwC+hey5jk9zQUXWPB1eVWiU8uzfD7BWximSD92jH1ZC2tnIRwiPBHyRjLe+Yth/gleoBn8kBf55o1lrdlUkkWtaRWv/gggD+Qa9g6ZciB35IzcCXHmmucE0oVO+IMKf9BXGpzkQ6+5VvmTX+gZ19hheKJT5nbY6HVaaEvnjCFAMAQEVhZwzlkiwPLznNTyxoX3QScXpc8l2bDggbihIKThfpTt18Ppw0/pvu/HJYrKShyFkUcg5BU5hw7kZV+LbJAzOkDAwGC0whhxzXuMRS20gpdaztBk0UvkTRryHT2mNIVCfuQNT3kDxjNCsfz+cBB/8jjFddAmb4awR4+tXN8GkY2itggCyDT0Gjkj8/yZd6HjPA+9zF9HUfLpoEPc6OCELgWtSJM/5+NEvjwjDf/Y2urXdt9poS2dcygDwggl4jqEzzmOfFwUhdCfMniE3B9kHi3HSmlDUXgX9CNe5EOcCPEs7nVuLAIhnziTWz0qM8PYBGTOgZ7VSnewOpDXYc/U/uCEY2iPOWk+VmG/8uPD66zkZscCK29ZhVspfdCp5ZznN38des2z6MHXQk9xWh8BZBqyRr9D3+E8GoBRirB7xI/rqG+uGz1OOejxLupL0Kh2jjT59+VnZptpGHZqaEvnHMJAyHGEk0Y5QnjxLu7DSPF8sKFamqDN+zz9Yt4Rb7D5Kv7wEAD3RmEfMg/6cR4ex9VTk19ev8Ng8hU8+wk+33bDAh70kEU3LKxhOyCNy0aEKC985UPxPv8uriNt3Fc69xenv3eVaOlZ7QigY8gQjNGlsGtBoXgf8ia+92atqebXdh90SBvpeJZ/HnT7O0ceESefPt51mk40ptYGgg0+I4y8sQrhhOBCQYpsRLzi8/7u82nimrwr5R/v49wfXb1rLALVKm48J/ehyAm5Y2ygQ08iRldKdPsfYjO1HVKe8BqN0MgXY8iebb6UF7oIX3EMpWzkkw95rPLXxKkH/Xxeum4+AuFEWc6AThF4VrqmsdtX7qGTwTk6SVzqBfoRR+jOUHSmmIZ76A2HZvDbque2ds6AimKEgALkvCB5l7+POIM9V6LBszjy9GLYB4NdKV0+rq4bi0Al+ZDjcOVSNmBGi+vQs+HS7Q+NoE1eHJ6vfaOYc9FABh3SBG/xbLDnyJd0+eugE/zE+0pxIq7O7YVA6DZcc43TNdXrowd5Bx6lI26kRT8I9dYL6NWbZvDfCue2d84h+CKYPEdpUJBGCNC+l2B0S7kWlTPyg4e4LvKn+5FDIK8j9ZJHyB96HPk8BirZYOLmaRX1KfSOHk41mvBGHWhkCAwamYdoNwcBdAz59g197/vTr0gb5750ar/L67fVOPP0fXV+uPRr52TkYra9cy5ClRcSvYn8PXFDyMXnRToD3bNKG1oc0Mpfh7ION4+BeND7/hGoJOt4lk85FDnl5R+NwNCFPO3+rivxQvxq/OSfc+33pU5Jn2xMK/vc60YIDAkB94F9e6dh24IeOhwOvKyT8bLnnNfbwquabyvR4Fm1OlQz4RaO2PbOuZLQwLvW59Xi1SIz0kb6OEe6ohLHc51HEAF8VKGFTe5FWQ3WqRZLMFRZF/ko0h3ovr9880ZruPkMxIfedy4CA+kO76tNqYwEKgPxNxI8NCqPtnfOjQJGdIVAOyPQyUarneUi3oVArQg0djKqVi4UTwgIASEgBISAECgjIOdchkIXQkAICAEhIARaAwENa7eGHMSFEGgYAvn554ZlIsJCQAjUFQH1nOsKp4gJASEgBISAEBg+AnLOw8dQFISAEBACQkAI1BUBOee6wiliQkAICAEhIASGj4DmnIePoSg0AYH8POo111yTjj/++LTIIos0gRNlOZIIhNw5x3V/+71HkjflJQTqiYCccz3RFK0RRYAfhN92223T9OnT07XXXpteeeWVEc1fmY08AksvvXTafPPN06xZs/xnDJv5AYyRL71y7CYERlnrU9/66yaJd0hZUdv4bObMmTPTQgstlMaMHtMhpVMxqiFQ6dOk+uBKNbT0vJ0RUM+5naXXxbyHQcZJ87vGnCsZ7i6GSEUXAkKgjRFQz7mNhdftrLtD7hn4CWfd7Zh0Y/kl+26UeueXWT3nzpdxR5eQxUA4aYKMdEeLWoUTAl2FgLZSdZW4O6uwcsadJU+VRggIgV4E1HPuxUJXbYqAnHSbCk5sCwEhUBUB9ZyrQqMXQkAICAEhIASag4Ccc3NwV65CQAgIASEgBKoiIOdcFRq9EAJCQAgIASHQHATknJuDu3IVAkJACAgBIVAVATnnqtDohRAQAkJACAiB5iAg59wc3JWrEBACQkAICIGqCPw/LCSQ2ApYa90AAAAASUVORK5CYII=;" vertex="1" parent="1">
          <mxGeometry x="450" y="640" width="487" height="194" as="geometry" />
        </mxCell>
      </root>
    </mxGraphModel>
  </diagram>
</mxfile>
